M48
; DRILL file {KiCad 9.0.2} date 2025-06-25T19:19:56+0300
; FORMAT={-:-/ absolute / metric / decimal}
; #@! TF.CreationDate,2025-06-25T19:19:56+03:00
; #@! TF.GenerationSoftware,Kicad,Pcbnew,9.0.2
; #@! TF.FileFunction,Plated,1,2,PTH
FMAT,2
METRIC
; #@! TA.AperFunction,Plated,PTH,ComponentDrill
T1C0.800
; #@! TA.AperFunction,Plated,PTH,ComponentDrill
T2C1.000
; #@! TA.AperFunction,Plated,PTH,ComponentDrill
T3C1.300
; #@! TA.AperFunction,Plated,PTH,ComponentDrill
T4C2.200
%
G90
G05
T1
X197.34Y-124.22
X197.34Y-136.92
X199.88Y-124.22
X199.88Y-136.92
X201.73Y-128.08
X201.73Y-133.08
X202.42Y-124.22
X202.42Y-136.92
X204.96Y-124.22
X204.96Y-136.92
X207.5Y-124.22
X207.5Y-136.92
X210.04Y-124.22
X210.04Y-136.92
X212.58Y-124.22
X212.58Y-136.92
X215.12Y-124.22
X215.12Y-136.92
X221.11Y-124.209
X221.11Y-136.909
X223.65Y-124.209
X223.65Y-136.909
X225.5Y-128.069
X225.5Y-133.069
X226.19Y-124.209
X226.19Y-136.909
X228.73Y-124.209
X228.73Y-136.909
X231.27Y-124.209
X231.27Y-136.909
X233.81Y-124.209
X233.81Y-136.909
X236.35Y-124.209
X236.35Y-136.909
X238.89Y-124.209
X238.89Y-136.909
X244.841Y-124.155
X244.841Y-136.855
X247.381Y-124.155
X247.381Y-136.855
X249.231Y-128.015
X249.231Y-133.015
X249.921Y-124.155
X249.921Y-136.855
X252.461Y-124.155
X252.461Y-136.855
X255.001Y-124.155
X255.001Y-136.855
X257.541Y-124.155
X257.541Y-136.855
X260.081Y-124.155
X260.081Y-136.855
X262.621Y-124.155
X262.621Y-136.855
T2
X200.23Y-144.58
X200.23Y-147.12
X202.46Y-118.08
X202.767Y-152.518
X202.77Y-144.58
X202.77Y-147.12
X205.0Y-118.08
X205.307Y-152.518
X205.31Y-144.58
X205.31Y-147.12
X207.54Y-118.08
X207.847Y-152.518
X207.85Y-144.58
X207.85Y-147.12
X210.08Y-118.08
X210.39Y-144.58
X210.39Y-147.12
X212.93Y-144.58
X212.93Y-147.12
X224.0Y-144.569
X224.0Y-147.109
X226.19Y-118.069
X226.535Y-152.566
X226.54Y-144.569
X226.54Y-147.109
X228.73Y-118.069
X229.075Y-152.566
X229.08Y-144.569
X229.08Y-147.109
X231.27Y-118.069
X231.615Y-152.566
X231.62Y-144.569
X231.62Y-147.109
X233.81Y-118.069
X234.16Y-144.569
X234.16Y-147.109
X236.7Y-144.569
X236.7Y-147.109
X247.731Y-144.515
X247.731Y-147.055
X249.96Y-118.015
X250.267Y-152.732
X250.271Y-144.515
X250.271Y-147.055
X252.5Y-118.015
X252.807Y-152.732
X252.811Y-144.515
X252.811Y-147.055
X255.04Y-118.015
X255.347Y-152.732
X255.351Y-144.515
X255.351Y-147.055
X257.58Y-118.015
X257.891Y-144.515
X257.891Y-147.055
X260.431Y-144.515
X260.431Y-147.055
T3
X227.5Y-107.58
X232.5Y-107.58
T4
X197.5Y-107.58
X197.5Y-155.08
X265.0Y-107.58
X265.0Y-155.08
M30
