%TF.GenerationSoftware,KiCad,Pcbnew,9.0.2*%
%TF.CreationDate,2025-06-25T19:19:58+03:00*%
%TF.ProjectId,CNC-FPGA Driver PCB,434e432d-4650-4474-9120-447269766572,1.0*%
%TF.SameCoordinates,Original*%
%TF.FileFunction,Soldermask,Bot*%
%TF.FilePolarity,Negative*%
%FSLAX46Y46*%
G04 Gerber Fmt 4.6, Leading zero omitted, Abs format (unit mm)*
G04 Created by KiCad (PCBNEW 9.0.2) date 2025-06-25 19:19:58*
%MOMM*%
%LPD*%
G01*
G04 APERTURE LIST*
G04 Aperture macros list*
%AMRoundRect*
0 Rectangle with rounded corners*
0 $1 Rounding radius*
0 $2 $3 $4 $5 $6 $7 $8 $9 X,Y pos of 4 corners*
0 Add a 4 corners polygon primitive as box body*
4,1,4,$2,$3,$4,$5,$6,$7,$8,$9,$2,$3,0*
0 Add four circle primitives for the rounded corners*
1,1,$1+$1,$2,$3*
1,1,$1+$1,$4,$5*
1,1,$1+$1,$6,$7*
1,1,$1+$1,$8,$9*
0 Add four rect primitives between the rounded corners*
20,1,$1+$1,$2,$3,$4,$5,0*
20,1,$1+$1,$4,$5,$6,$7,0*
20,1,$1+$1,$6,$7,$8,$9,0*
20,1,$1+$1,$8,$9,$2,$3,0*%
G04 Aperture macros list end*
%ADD10R,1.700000X1.700000*%
%ADD11C,1.700000*%
%ADD12R,1.600000X1.600000*%
%ADD13O,1.600000X1.600000*%
%ADD14C,1.600000*%
%ADD15C,3.800000*%
%ADD16RoundRect,0.250001X1.149999X1.149999X-1.149999X1.149999X-1.149999X-1.149999X1.149999X-1.149999X0*%
%ADD17C,2.800000*%
G04 APERTURE END LIST*
D10*
%TO.C,LimitSwitchZ*%
X255346526Y-152731664D03*
D11*
X252806526Y-152731664D03*
X250266526Y-152731664D03*
%TD*%
D10*
%TO.C,LimitSwitchX*%
X207846526Y-152518429D03*
D11*
X205306526Y-152518429D03*
X202766526Y-152518429D03*
%TD*%
%TO.C,JC*%
X247730910Y-144515399D03*
X250270910Y-144515399D03*
X252810910Y-144515399D03*
X255350910Y-144515399D03*
X257890910Y-144515399D03*
X260430910Y-144515399D03*
D10*
X247730910Y-147055399D03*
D11*
X250270910Y-147055399D03*
X252810910Y-147055399D03*
X255350910Y-147055399D03*
X257890910Y-147055399D03*
X260430910Y-147055399D03*
%TD*%
%TO.C,JA*%
X200230000Y-144579545D03*
X202770000Y-144579545D03*
X205310000Y-144579545D03*
X207850000Y-144579545D03*
X210390000Y-144579545D03*
X212930000Y-144579545D03*
D10*
X200230000Y-147119545D03*
D11*
X202770000Y-147119545D03*
X205310000Y-147119545D03*
X207850000Y-147119545D03*
X210390000Y-147119545D03*
X212930000Y-147119545D03*
%TD*%
D12*
%TO.C,A4988 Z Axis Driver*%
X244840910Y-136855399D03*
D13*
X247380910Y-136855399D03*
X249920910Y-136855399D03*
X252460910Y-136855399D03*
X255000910Y-136855399D03*
X257540910Y-136855399D03*
X260080910Y-136855399D03*
X262620910Y-136855399D03*
X262620910Y-124155399D03*
X260080910Y-124155399D03*
X257540910Y-124155399D03*
X255000910Y-124155399D03*
X252460910Y-124155399D03*
X249920910Y-124155399D03*
X247380910Y-124155399D03*
X244840910Y-124155399D03*
%TD*%
D14*
%TO.C,C1*%
X201730000Y-133079545D03*
X201730000Y-128079545D03*
%TD*%
D10*
%TO.C,StepperX*%
X210080000Y-118079545D03*
D11*
X207540000Y-118079545D03*
X205000000Y-118079545D03*
X202460000Y-118079545D03*
%TD*%
D14*
%TO.C,+100[\u00B5F]-*%
X249230910Y-133015399D03*
X249230910Y-128015399D03*
%TD*%
D12*
%TO.C,A4988 X Axis Driver*%
X197340000Y-136919545D03*
D13*
X199880000Y-136919545D03*
X202420000Y-136919545D03*
X204960000Y-136919545D03*
X207500000Y-136919545D03*
X210040000Y-136919545D03*
X212580000Y-136919545D03*
X215120000Y-136919545D03*
X215120000Y-124219545D03*
X212580000Y-124219545D03*
X210040000Y-124219545D03*
X207500000Y-124219545D03*
X204960000Y-124219545D03*
X202420000Y-124219545D03*
X199880000Y-124219545D03*
X197340000Y-124219545D03*
%TD*%
D15*
%TO.C,REF\u002A\u002A*%
X265000000Y-107579545D03*
%TD*%
D11*
%TO.C,JB*%
X224000000Y-144568708D03*
X226540000Y-144568708D03*
X229080000Y-144568708D03*
X231620000Y-144568708D03*
X234160000Y-144568708D03*
X236700000Y-144568708D03*
D10*
X224000000Y-147108708D03*
D11*
X226540000Y-147108708D03*
X229080000Y-147108708D03*
X231620000Y-147108708D03*
X234160000Y-147108708D03*
X236700000Y-147108708D03*
%TD*%
D15*
%TO.C,REF\u002A\u002A*%
X197500000Y-107579545D03*
%TD*%
D10*
%TO.C,StepperY*%
X233810000Y-118068708D03*
D11*
X231270000Y-118068708D03*
X228730000Y-118068708D03*
X226190000Y-118068708D03*
%TD*%
D15*
%TO.C,REF\u002A\u002A*%
X197500000Y-155079545D03*
%TD*%
%TO.C,REF\u002A\u002A*%
X265000000Y-155079545D03*
%TD*%
D12*
%TO.C,A4988 Y Axis Driver*%
X221110000Y-136908708D03*
D13*
X223650000Y-136908708D03*
X226190000Y-136908708D03*
X228730000Y-136908708D03*
X231270000Y-136908708D03*
X233810000Y-136908708D03*
X236350000Y-136908708D03*
X238890000Y-136908708D03*
X238890000Y-124208708D03*
X236350000Y-124208708D03*
X233810000Y-124208708D03*
X231270000Y-124208708D03*
X228730000Y-124208708D03*
X226190000Y-124208708D03*
X223650000Y-124208708D03*
X221110000Y-124208708D03*
%TD*%
D16*
%TO.C,+  12V  - *%
X232500000Y-107579545D03*
D17*
X227500000Y-107579545D03*
%TD*%
D10*
%TO.C,LimitSwitchY*%
X231614919Y-152566218D03*
D11*
X229074919Y-152566218D03*
X226534919Y-152566218D03*
%TD*%
D14*
%TO.C,+100[\u00B5F]-*%
X225500000Y-133068708D03*
X225500000Y-128068708D03*
%TD*%
D10*
%TO.C,StepperZ*%
X257580000Y-118015399D03*
D11*
X255040000Y-118015399D03*
X252500000Y-118015399D03*
X249960000Y-118015399D03*
%TD*%
M02*
