%TF.GenerationSoftware,KiCad,Pcbnew,9.0.2*%
%TF.CreationDate,2025-06-25T19:19:58+03:00*%
%TF.ProjectId,CNC-FPGA Driver PCB,434e432d-4650-4474-9120-447269766572,1.0*%
%TF.SameCoordinates,Original*%
%TF.FileFunction,Copper,L2,Bot*%
%TF.FilePolarity,Positive*%
%FSLAX46Y46*%
G04 Gerber Fmt 4.6, Leading zero omitted, Abs format (unit mm)*
G04 Created by KiCad (PCBNEW 9.0.2) date 2025-06-25 19:19:58*
%MOMM*%
%LPD*%
G01*
G04 APERTURE LIST*
G04 Aperture macros list*
%AMRoundRect*
0 Rectangle with rounded corners*
0 $1 Rounding radius*
0 $2 $3 $4 $5 $6 $7 $8 $9 X,Y pos of 4 corners*
0 Add a 4 corners polygon primitive as box body*
4,1,4,$2,$3,$4,$5,$6,$7,$8,$9,$2,$3,0*
0 Add four circle primitives for the rounded corners*
1,1,$1+$1,$2,$3*
1,1,$1+$1,$4,$5*
1,1,$1+$1,$6,$7*
1,1,$1+$1,$8,$9*
0 Add four rect primitives between the rounded corners*
20,1,$1+$1,$2,$3,$4,$5,0*
20,1,$1+$1,$4,$5,$6,$7,0*
20,1,$1+$1,$6,$7,$8,$9,0*
20,1,$1+$1,$8,$9,$2,$3,0*%
G04 Aperture macros list end*
%TA.AperFunction,ComponentPad*%
%ADD10R,1.700000X1.700000*%
%TD*%
%TA.AperFunction,ComponentPad*%
%ADD11C,1.700000*%
%TD*%
%TA.AperFunction,ComponentPad*%
%ADD12R,1.600000X1.600000*%
%TD*%
%TA.AperFunction,ComponentPad*%
%ADD13O,1.600000X1.600000*%
%TD*%
%TA.AperFunction,ComponentPad*%
%ADD14C,1.600000*%
%TD*%
%TA.AperFunction,ComponentPad*%
%ADD15C,3.800000*%
%TD*%
%TA.AperFunction,ComponentPad*%
%ADD16RoundRect,0.250001X1.149999X1.149999X-1.149999X1.149999X-1.149999X-1.149999X1.149999X-1.149999X0*%
%TD*%
%TA.AperFunction,ComponentPad*%
%ADD17C,2.800000*%
%TD*%
G04 APERTURE END LIST*
D10*
%TO.P,LimitSwitchZ,1,C*%
%TO.N,/LS+*%
X255346526Y-152731664D03*
D11*
%TO.P,LimitSwitchZ,2,B*%
%TO.N,/LSS*%
X252806526Y-152731664D03*
%TO.P,LimitSwitchZ,3,A*%
%TO.N,/LS-*%
X250266526Y-152731664D03*
%TD*%
D10*
%TO.P,LimitSwitchX,1,C*%
%TO.N,/LS+*%
X207846526Y-152518429D03*
D11*
%TO.P,LimitSwitchX,2,B*%
%TO.N,/LSS*%
X205306526Y-152518429D03*
%TO.P,LimitSwitchX,3,A*%
%TO.N,/LS-*%
X202766526Y-152518429D03*
%TD*%
%TO.P,JC,1,Pin_2*%
%TO.N,/MS1*%
X247730910Y-144515399D03*
%TO.P,JC,2,Pin_4*%
%TO.N,/MS2*%
X250270910Y-144515399D03*
%TO.P,JC,3,Pin_6*%
%TO.N,/MS3*%
X252810910Y-144515399D03*
%TO.P,JC,4,Pin_8*%
%TO.N,/RST*%
X255350910Y-144515399D03*
%TO.P,JC,5,Pin_10*%
%TO.N,/SLP*%
X257890910Y-144515399D03*
%TO.P,JC,6,Pin_12*%
%TO.N,/STEP*%
X260430910Y-144515399D03*
D10*
%TO.P,JC,7,Pin_1*%
%TO.N,/EN*%
X247730910Y-147055399D03*
D11*
%TO.P,JC,8,Pin_3*%
%TO.N,/LS-*%
X250270910Y-147055399D03*
%TO.P,JC,9,Pin_5*%
%TO.N,/LSS*%
X252810910Y-147055399D03*
%TO.P,JC,10,Pin_7*%
%TO.N,/LS+*%
X255350910Y-147055399D03*
%TO.P,JC,11,Pin_9*%
%TO.N,GND*%
X257890910Y-147055399D03*
%TO.P,JC,12,Pin_11*%
%TO.N,/DIR*%
X260430910Y-147055399D03*
%TD*%
%TO.P,JA,1,Pin_8*%
%TO.N,/MS1 *%
X200230000Y-144579545D03*
%TO.P,JA,2,Pin_9*%
%TO.N,/MS2*%
X202770000Y-144579545D03*
%TO.P,JA,3,Pin_10*%
%TO.N,/MS3*%
X205310000Y-144579545D03*
%TO.P,JA,4,Pin_3*%
%TO.N,/RST*%
X207850000Y-144579545D03*
%TO.P,JA,5,Pin_12*%
%TO.N,/SLP*%
X210390000Y-144579545D03*
%TO.P,JA,6,Pin_2*%
%TO.N,/STEP*%
X212930000Y-144579545D03*
D10*
%TO.P,JA,7,Pin_7*%
%TO.N,/EN*%
X200230000Y-147119545D03*
D11*
%TO.P,JA,8,Pin_5*%
%TO.N,/LS-*%
X202770000Y-147119545D03*
%TO.P,JA,9,Pin_4*%
%TO.N,/LSS*%
X205310000Y-147119545D03*
%TO.P,JA,10,Pin_6*%
%TO.N,/LS+*%
X207850000Y-147119545D03*
%TO.P,JA,11,Pin_11*%
%TO.N,GND*%
X210390000Y-147119545D03*
%TO.P,JA,12,Pin_1*%
%TO.N,/DIR*%
X212930000Y-147119545D03*
%TD*%
D12*
%TO.P,A4988 Z Axis Driver,1,GND*%
%TO.N,/EN*%
X244840910Y-136855399D03*
D13*
%TO.P,A4988 Z Axis Driver,2,VDD*%
%TO.N,/MS1*%
X247380910Y-136855399D03*
%TO.P,A4988 Z Axis Driver,3,1B*%
%TO.N,/MS2*%
X249920910Y-136855399D03*
%TO.P,A4988 Z Axis Driver,4,1A*%
%TO.N,/MS3*%
X252460910Y-136855399D03*
%TO.P,A4988 Z Axis Driver,5,2A*%
%TO.N,/RST*%
X255000910Y-136855399D03*
%TO.P,A4988 Z Axis Driver,6,2B*%
%TO.N,/SLP*%
X257540910Y-136855399D03*
%TO.P,A4988 Z Axis Driver,7,GND*%
%TO.N,/STEP*%
X260080910Y-136855399D03*
%TO.P,A4988 Z Axis Driver,8,VMOT*%
%TO.N,/DIR*%
X262620910Y-136855399D03*
%TO.P,A4988 Z Axis Driver,9,~{ENABLE}*%
%TO.N,GND*%
X262620910Y-124155399D03*
%TO.P,A4988 Z Axis Driver,10,MS1*%
%TO.N,+3.3V*%
X260080910Y-124155399D03*
%TO.P,A4988 Z Axis Driver,11,MS2*%
%TO.N,Net-(A1-1B)*%
X257540910Y-124155399D03*
%TO.P,A4988 Z Axis Driver,12,MS3*%
%TO.N,Net-(A1-1A)*%
X255000910Y-124155399D03*
%TO.P,A4988 Z Axis Driver,13,~{RESET}*%
%TO.N,Net-(A1-2A)*%
X252460910Y-124155399D03*
%TO.P,A4988 Z Axis Driver,14,~{SLEEP}*%
%TO.N,Net-(A1-2B)*%
X249920910Y-124155399D03*
%TO.P,A4988 Z Axis Driver,15,STEP*%
%TO.N,GND*%
X247380910Y-124155399D03*
%TO.P,A4988 Z Axis Driver,16,DIR*%
%TO.N,Net-(A1-VMOT)*%
X244840910Y-124155399D03*
%TD*%
D14*
%TO.P,C1,1*%
%TO.N,Net-(A1-VMOT)*%
X201730000Y-133079545D03*
%TO.P,C1,2*%
%TO.N,GND*%
X201730000Y-128079545D03*
%TD*%
D10*
%TO.P,StepperX,1,Pin_1*%
%TO.N,Net-(A1-1B)*%
X210080000Y-118079545D03*
D11*
%TO.P,StepperX,2,Pin_2*%
%TO.N,Net-(A1-1A)*%
X207540000Y-118079545D03*
%TO.P,StepperX,3,Pin_3*%
%TO.N,Net-(A1-2A)*%
X205000000Y-118079545D03*
%TO.P,StepperX,4,Pin_4*%
%TO.N,Net-(A1-2B)*%
X202460000Y-118079545D03*
%TD*%
D14*
%TO.P,+100[\u00B5F]-,1*%
%TO.N,Net-(A1-VMOT)*%
X249230910Y-133015399D03*
%TO.P,+100[\u00B5F]-,2*%
%TO.N,GND*%
X249230910Y-128015399D03*
%TD*%
D12*
%TO.P,A4988 X Axis Driver,1,~{ENABLE}*%
%TO.N,/EN*%
X197340000Y-136919545D03*
D13*
%TO.P,A4988 X Axis Driver,2,MS1*%
%TO.N,/MS1*%
X199880000Y-136919545D03*
%TO.P,A4988 X Axis Driver,3,MS2*%
%TO.N,/MS2*%
X202420000Y-136919545D03*
%TO.P,A4988 X Axis Driver,4,MS3*%
%TO.N,/MS3*%
X204960000Y-136919545D03*
%TO.P,A4988 X Axis Driver,5,~{RESET}*%
%TO.N,/RST*%
X207500000Y-136919545D03*
%TO.P,A4988 X Axis Driver,6,~{SLEEP}*%
%TO.N,/SLP*%
X210040000Y-136919545D03*
%TO.P,A4988 X Axis Driver,7,STEP*%
%TO.N,/STEP*%
X212580000Y-136919545D03*
%TO.P,A4988 X Axis Driver,8,DIR*%
%TO.N,/DIR*%
X215120000Y-136919545D03*
%TO.P,A4988 X Axis Driver,9,GND*%
%TO.N,GND*%
X215120000Y-124219545D03*
%TO.P,A4988 X Axis Driver,10,VDD*%
%TO.N,+3.3V*%
X212580000Y-124219545D03*
%TO.P,A4988 X Axis Driver,11,1B*%
%TO.N,Net-(A1-1B)*%
X210040000Y-124219545D03*
%TO.P,A4988 X Axis Driver,12,1A*%
%TO.N,Net-(A1-1A)*%
X207500000Y-124219545D03*
%TO.P,A4988 X Axis Driver,13,2A*%
%TO.N,Net-(A1-2A)*%
X204960000Y-124219545D03*
%TO.P,A4988 X Axis Driver,14,2B*%
%TO.N,Net-(A1-2B)*%
X202420000Y-124219545D03*
%TO.P,A4988 X Axis Driver,15,GND*%
%TO.N,GND*%
X199880000Y-124219545D03*
%TO.P,A4988 X Axis Driver,16,VMOT*%
%TO.N,Net-(A1-VMOT)*%
X197340000Y-124219545D03*
%TD*%
D15*
%TO.P,REF\u002A\u002A,1*%
%TO.N,N/C*%
X265000000Y-107579545D03*
%TD*%
D11*
%TO.P,JB,1,Pin_2*%
%TO.N,/MS1*%
X224000000Y-144568708D03*
%TO.P,JB,2,Pin_4*%
%TO.N,/MS2*%
X226540000Y-144568708D03*
%TO.P,JB,3,Pin_6*%
%TO.N,/MS3*%
X229080000Y-144568708D03*
%TO.P,JB,4,Pin_8*%
%TO.N,/RST*%
X231620000Y-144568708D03*
%TO.P,JB,5,Pin_10*%
%TO.N,/SLP*%
X234160000Y-144568708D03*
%TO.P,JB,6,Pin_12*%
%TO.N,/STEP*%
X236700000Y-144568708D03*
D10*
%TO.P,JB,7,Pin_1*%
%TO.N,/EN*%
X224000000Y-147108708D03*
D11*
%TO.P,JB,8,Pin_3*%
%TO.N,/LS-*%
X226540000Y-147108708D03*
%TO.P,JB,9,Pin_5*%
%TO.N,/LSS*%
X229080000Y-147108708D03*
%TO.P,JB,10,Pin_7*%
%TO.N,/LS+*%
X231620000Y-147108708D03*
%TO.P,JB,11,Pin_9*%
%TO.N,GND*%
X234160000Y-147108708D03*
%TO.P,JB,12,Pin_11*%
%TO.N,/DIR*%
X236700000Y-147108708D03*
%TD*%
D15*
%TO.P,REF\u002A\u002A,1*%
%TO.N,N/C*%
X197500000Y-107579545D03*
%TD*%
D10*
%TO.P,StepperY,1,Pin_1*%
%TO.N,Net-(A1-1B)*%
X233810000Y-118068708D03*
D11*
%TO.P,StepperY,2,Pin_2*%
%TO.N,Net-(A1-1A)*%
X231270000Y-118068708D03*
%TO.P,StepperY,3,Pin_3*%
%TO.N,Net-(A1-2A)*%
X228730000Y-118068708D03*
%TO.P,StepperY,4,Pin_4*%
%TO.N,Net-(A1-2B)*%
X226190000Y-118068708D03*
%TD*%
D15*
%TO.P,REF\u002A\u002A,1*%
%TO.N,N/C*%
X197500000Y-155079545D03*
%TD*%
%TO.P,REF\u002A\u002A,1*%
%TO.N,N/C*%
X265000000Y-155079545D03*
%TD*%
D12*
%TO.P,A4988 Y Axis Driver,1,GND*%
%TO.N,/EN*%
X221110000Y-136908708D03*
D13*
%TO.P,A4988 Y Axis Driver,2,VDD*%
%TO.N,/MS1*%
X223650000Y-136908708D03*
%TO.P,A4988 Y Axis Driver,3,1B*%
%TO.N,/MS2*%
X226190000Y-136908708D03*
%TO.P,A4988 Y Axis Driver,4,1A*%
%TO.N,/MS3*%
X228730000Y-136908708D03*
%TO.P,A4988 Y Axis Driver,5,2A*%
%TO.N,/RST*%
X231270000Y-136908708D03*
%TO.P,A4988 Y Axis Driver,6,2B*%
%TO.N,/SLP*%
X233810000Y-136908708D03*
%TO.P,A4988 Y Axis Driver,7,GND*%
%TO.N,/STEP*%
X236350000Y-136908708D03*
%TO.P,A4988 Y Axis Driver,8,VMOT*%
%TO.N,/DIR*%
X238890000Y-136908708D03*
%TO.P,A4988 Y Axis Driver,9,~{ENABLE}*%
%TO.N,GND*%
X238890000Y-124208708D03*
%TO.P,A4988 Y Axis Driver,10,MS1*%
%TO.N,+3.3V*%
X236350000Y-124208708D03*
%TO.P,A4988 Y Axis Driver,11,MS2*%
%TO.N,Net-(A1-1B)*%
X233810000Y-124208708D03*
%TO.P,A4988 Y Axis Driver,12,MS3*%
%TO.N,Net-(A1-1A)*%
X231270000Y-124208708D03*
%TO.P,A4988 Y Axis Driver,13,~{RESET}*%
%TO.N,Net-(A1-2A)*%
X228730000Y-124208708D03*
%TO.P,A4988 Y Axis Driver,14,~{SLEEP}*%
%TO.N,Net-(A1-2B)*%
X226190000Y-124208708D03*
%TO.P,A4988 Y Axis Driver,15,STEP*%
%TO.N,GND*%
X223650000Y-124208708D03*
%TO.P,A4988 Y Axis Driver,16,DIR*%
%TO.N,Net-(A1-VMOT)*%
X221110000Y-124208708D03*
%TD*%
D16*
%TO.P,+  12V  - ,1,Pin_2*%
%TO.N,GND*%
X232500000Y-107579545D03*
D17*
%TO.P,+  12V  - ,2,Pin_1*%
%TO.N,Net-(A1-VMOT)*%
X227500000Y-107579545D03*
%TD*%
D10*
%TO.P,LimitSwitchY,1,C*%
%TO.N,/LS+*%
X231614919Y-152566218D03*
D11*
%TO.P,LimitSwitchY,2,B*%
%TO.N,/LSS*%
X229074919Y-152566218D03*
%TO.P,LimitSwitchY,3,A*%
%TO.N,/LS-*%
X226534919Y-152566218D03*
%TD*%
D14*
%TO.P,+100[\u00B5F]-,1*%
%TO.N,Net-(A1-VMOT)*%
X225500000Y-133068708D03*
%TO.P,+100[\u00B5F]-,2*%
%TO.N,GND*%
X225500000Y-128068708D03*
%TD*%
D10*
%TO.P,StepperZ,1,Pin_1*%
%TO.N,Net-(A1-1B)*%
X257580000Y-118015399D03*
D11*
%TO.P,StepperZ,2,Pin_2*%
%TO.N,Net-(A1-1A)*%
X255040000Y-118015399D03*
%TO.P,StepperZ,3,Pin_3*%
%TO.N,Net-(A1-2A)*%
X252500000Y-118015399D03*
%TO.P,StepperZ,4,Pin_4*%
%TO.N,Net-(A1-2B)*%
X249960000Y-118015399D03*
%TD*%
M02*
